<svg width="646" height="486" viewBox="0 0 646 486" fill="none" xmlns="http://www.w3.org/2000/svg">
<path opacity="0.4" d="M545.219 186.848C553.768 186.848 560.698 179.911 560.698 171.354C560.698 162.797 553.768 155.86 545.219 155.86C536.67 155.86 529.74 162.797 529.74 171.354C529.74 179.911 536.67 186.848 545.219 186.848Z" fill="#EA316F"/>
<path opacity="0.4" d="M218.858 101.606C231.044 101.606 240.924 91.7177 240.924 79.5193C240.924 67.321 231.044 57.4323 218.858 57.4323C206.671 57.4323 196.792 67.321 196.792 79.5193C196.792 91.7177 206.671 101.606 218.858 101.606Z" fill="#EA316F"/>
<path opacity="0.4" d="M178.02 105.562C186.568 105.562 193.499 98.6254 193.499 90.0683C193.499 81.5113 186.568 74.5745 178.02 74.5745C169.471 74.5745 162.541 81.5113 162.541 90.0683C162.541 98.6254 169.471 105.562 178.02 105.562Z" fill="#EA316F"/>
<path d="M558.183 344.616C545.952 358.019 545.508 377.543 545.508 377.543C545.508 377.543 564.894 375.337 577.125 361.933C589.355 348.53 589.799 329.006 589.799 329.006C589.799 329.006 570.414 331.212 558.183 344.616Z" fill="#3F3D56"/>
<path d="M565.092 348.472C561.391 366.243 545.834 378.029 545.834 378.029C545.834 378.029 536.277 361.003 539.978 343.232C543.679 325.461 559.236 313.676 559.236 313.676C559.236 313.676 568.793 330.702 565.092 348.472Z" fill="#EA316F"/>
<path d="M549.207 165.102V376.946L478.66 435.28H117.748V213.202L223.057 165.102H549.207Z" fill="#3F3D56"/>
<path opacity="0.1" d="M549.207 165.102V165.951L523.882 182.92L478.66 213.202H117.748L223.057 165.102H549.207Z" fill="black"/>
<path opacity="0.1" d="M549.207 165.102V376.946L478.66 435.28L479.172 212.691L523.882 182.92L548.798 165.102H549.207Z" fill="black"/>
<path d="M454.122 194.269H234.303L250.662 185.058H461.28L454.122 194.269Z" fill="#2F2E41"/>
<path d="M643.842 446.802C643.842 446.802 648.103 464.64 644.229 465.416C640.355 466.191 621.372 465.941 616.723 466.717C612.075 467.492 602.389 466.191 602.389 462.701C602.389 459.211 612.462 456.885 612.462 456.885C612.462 456.885 626.796 449.129 627.183 448.741C627.571 448.354 643.842 446.802 643.842 446.802Z" fill="#2F2E41"/>
<path d="M640.355 341.714C640.355 341.714 639.193 354.899 639.193 356.062C639.193 357.225 640.355 375.451 639.193 376.227C638.031 377.002 639.968 382.431 639.968 384.37C639.968 386.309 646.166 418.494 644.617 430.903C643.067 443.312 646.941 442.149 645.779 443.312C644.617 444.476 644.617 444.476 644.617 446.802C644.617 449.129 632.22 451.068 632.22 451.068L618.66 365.369L625.634 339.775L640.355 341.714Z" fill="#575A89"/>
<path opacity="0.1" d="M640.355 341.714C640.355 341.714 639.193 354.899 639.193 356.062C639.193 357.225 640.355 375.451 639.193 376.227C638.031 377.002 639.968 382.431 639.968 384.37C639.968 386.309 646.166 418.494 644.617 430.903C643.067 443.312 646.941 442.149 645.779 443.312C644.617 444.476 644.617 444.476 644.617 446.802C644.617 449.129 632.22 451.068 632.22 451.068L618.66 365.369L625.634 339.775L640.355 341.714Z" fill="black"/>
<path d="M638.418 452.231C638.418 452.231 642.292 466.191 638.418 466.967C634.544 467.742 615.561 466.078 610.912 466.854C606.264 467.63 596.578 467.742 596.578 464.252C596.578 460.762 606.651 458.436 606.651 458.436C606.651 458.436 620.985 450.68 621.372 450.292C621.76 449.905 638.418 452.231 638.418 452.231Z" fill="#2F2E41"/>
<path d="M643.842 326.203C643.842 326.203 648.491 337.449 643.067 343.265C637.643 349.082 631.445 360.715 631.445 361.491C631.445 362.267 642.292 439.435 640.743 444.476C639.193 449.517 639.58 452.619 639.968 453.395C640.355 454.17 636.094 458.436 631.445 458.436C626.796 458.436 619.823 454.946 619.048 451.844C618.273 448.741 620.21 421.984 619.823 416.943C619.435 411.902 617.498 404.534 616.723 402.983C615.949 401.432 611.687 399.881 610.912 395.228C610.137 390.574 603.939 331.244 605.876 329.305C607.813 327.366 643.842 326.203 643.842 326.203Z" fill="#575A89"/>
<path d="M614.399 237.014C621.674 237.014 627.571 231.111 627.571 223.829C627.571 216.548 621.674 210.645 614.399 210.645C607.124 210.645 601.227 216.548 601.227 223.829C601.227 231.111 607.124 237.014 614.399 237.014Z" fill="#FFB9B9"/>
<path d="M622.534 230.422C622.534 230.422 619.823 244.769 621.76 246.32C623.697 247.872 607.038 250.198 607.038 250.198C607.038 250.198 605.101 231.197 604.714 229.258C604.326 227.319 622.534 230.422 622.534 230.422Z" fill="#FFB9B9"/>
<path d="M604.714 249.035C604.714 249.035 609.363 235.463 628.346 239.34C628.346 239.34 631.832 240.504 630.67 241.667C629.508 242.83 628.346 242.83 629.895 243.994C631.445 245.157 633.382 243.994 632.22 245.157C631.057 246.32 642.68 253.3 641.905 266.485C641.13 279.669 644.617 298.283 641.905 301.385C639.193 304.487 643.842 318.06 643.067 320.774C642.292 323.488 647.716 326.978 645.391 328.142C643.067 329.305 601.227 336.285 600.065 328.142C598.903 319.998 599.678 325.815 598.515 323.876C597.353 321.937 596.966 318.447 597.741 314.182C598.515 309.916 600.452 299.446 599.678 295.568C598.903 291.691 599.678 259.117 602.002 255.239C604.326 251.362 604.714 249.035 604.714 249.035Z" fill="#EA316F"/>
<path d="M612.849 343.653C612.849 343.653 618.661 365.756 611.3 365.756C603.939 365.756 604.327 342.877 604.327 342.877L612.849 343.653Z" fill="#FFB9B9"/>
<path d="M608.588 223.829C608.588 224.954 610.215 225.667 612.737 225.83H612.741C613.81 225.891 614.882 225.87 615.949 225.768C617.56 225.621 618.227 227.137 618.502 229.138C618.951 232.438 618.323 237.064 619.048 237.789C620.047 238.79 627.334 237.785 629.612 235.517C629.967 235.199 630.203 234.769 630.283 234.299C630.522 232.914 631.204 231.644 632.227 230.681C633.572 229.212 635.485 227.583 637.643 224.993C641.517 220.339 637.643 219.951 636.481 216.461C635.319 212.971 633.382 211.808 633.382 209.481C633.382 207.155 624.472 205.216 617.111 205.604C609.75 205.991 611.3 215.298 611.3 215.298C611.3 215.298 610.862 216.423 610.339 217.873C609.632 219.693 609.057 221.562 608.619 223.465C608.601 223.585 608.59 223.707 608.588 223.829V223.829Z" fill="#2F2E41"/>
<path opacity="0.1" d="M610.137 254.852C610.137 254.852 623.309 254.076 624.471 273.465C625.634 292.854 625.246 311.08 625.246 311.467C625.246 311.855 619.823 348.694 614.786 348.694C609.75 348.694 605.876 347.919 604.714 345.98C603.552 344.041 607.813 316.121 607.813 316.121C607.813 316.121 609.75 286.65 606.651 277.343C603.552 268.036 603.164 256.015 610.137 254.852Z" fill="black"/>
<path d="M608.2 252.913C608.2 252.913 621.372 252.137 622.534 271.526C623.697 290.915 623.309 309.141 623.309 309.528C623.309 309.916 617.886 346.755 612.849 346.755C607.813 346.755 603.939 345.98 602.777 344.041C601.615 342.102 605.876 314.182 605.876 314.182C605.876 314.182 607.813 284.711 604.714 275.404C601.615 266.097 601.227 254.076 608.2 252.913Z" fill="#EA316F"/>
<path d="M389.783 63.3613C389.783 63.3613 384.043 47.0814 379.897 52.1888C375.751 57.2962 386.275 65.9151 386.275 65.9151L389.783 63.3613Z" fill="#A0616A"/>
<path d="M416.89 47.4006L413.437 48.6816C413.437 48.6816 411.788 56.0194 412.425 57.2962C413.063 58.5731 413.382 57.6155 412.425 60.1692C411.469 62.7229 408.599 69.4264 408.28 70.3841C407.961 71.3417 389.783 64.319 389.783 60.8076C389.783 60.8076 385.956 65.2766 384.043 66.2343C384.043 66.2343 405.091 81.5566 407.961 83.4719C410.831 85.3872 412.425 84.4295 414.977 82.195C417.528 79.9605 428.371 61.446 428.371 61.446L416.89 47.4006Z" fill="#575A89"/>
<path d="M407.642 160.722C407.642 160.722 407.961 164.233 408.598 164.553C409.236 164.872 414.02 172.852 408.598 174.448C403.177 176.044 399.988 175.406 398.712 176.044C397.437 176.683 375.113 177.96 374.794 174.448C374.475 170.937 385.637 170.298 385.637 170.298C385.637 170.298 395.842 163.595 397.437 160.083C399.031 156.572 407.642 160.722 407.642 160.722Z" fill="#2F2E41"/>
<path d="M472.38 167.106C472.38 167.106 480.034 180.194 478.12 181.79C476.207 183.386 457.572 189.203 454.84 189.451C451.332 189.77 448.781 186.898 451.651 185.301C454.521 183.705 460.581 177.002 460.581 174.767V169.021L472.38 167.106Z" fill="#2F2E41"/>
<path d="M479.715 81.5566C479.715 81.5566 486.412 89.8562 475.888 103.263L458.348 125.608C458.348 125.608 469.191 142.846 469.51 151.784C469.829 160.722 472.061 158.807 472.699 162.637C473.337 166.468 476.207 164.553 473.975 167.425C471.742 170.298 463.451 172.852 460.899 170.618C460.022 169.814 459.337 168.823 458.895 167.717C458.453 166.612 458.266 165.421 458.348 164.233C458.348 162.956 453.883 155.615 453.565 153.38C453.246 151.145 441.446 132.95 441.446 132.95C441.446 132.95 437.619 122.097 442.084 116.032C446.549 109.967 449.499 101.365 449.499 101.365C449.499 101.365 436.344 117.309 427.095 121.139C427.095 121.139 423.587 121.778 424.225 123.374C424.863 124.97 424.225 125.927 423.268 127.524C422.312 129.12 415.615 147.634 413.382 152.422C411.15 157.211 412.107 160.084 409.555 161.68C407.004 163.276 395.523 161.999 395.523 160.403C395.523 158.807 397.118 154.657 398.075 152.422C399.031 150.188 406.685 124.331 406.047 119.862C405.409 115.393 406.366 109.328 411.15 106.775C415.933 104.221 440.17 83.4719 441.446 83.4719C442.722 83.4719 479.715 81.5566 479.715 81.5566Z" fill="#2F2E41"/>
<path d="M415.615 31.4398C423.012 31.4398 429.009 25.4373 429.009 18.0328C429.009 10.6283 423.012 4.62573 415.615 4.62573C408.217 4.62573 402.22 10.6283 402.22 18.0328C402.22 25.4373 408.217 31.4398 415.615 31.4398Z" fill="#A0616A"/>
<path d="M426.457 19.3096C426.457 19.3096 430.603 26.6516 435.706 27.6093C440.808 28.5669 422.312 43.2508 422.312 43.2508C422.312 43.2508 417.847 29.2053 414.02 28.5669C410.193 27.9285 426.457 19.3096 426.457 19.3096Z" fill="#A0616A"/>
<path d="M413.382 49.3159C413.382 53.4657 425.82 65.2766 425.82 65.2766L437.619 75.1723C437.619 75.1723 437.938 78.6836 439.214 79.0028C440.489 79.322 442.084 79.3221 440.808 81.2373C439.533 83.1526 436.344 87.3024 439.214 87.9409C440.079 88.0726 440.951 88.1557 441.826 88.1898C442.591 88.2345 443.49 88.276 444.501 88.3143C446.861 88.3973 449.814 88.4516 453.013 88.4293C453.922 88.4261 454.847 88.4154 455.787 88.3973C467.845 88.1579 481.813 86.7693 480.672 82.195C478.758 74.5338 480.034 71.9801 475.888 67.8303C471.742 63.6805 465.045 49.3158 465.045 49.3158C465.045 49.3158 451.651 26.6516 440.489 26.6516L438.171 26.0418C437.094 25.7578 435.954 25.8201 434.914 26.22C433.874 26.6199 432.987 27.337 432.376 28.27C430.138 31.6824 426.607 36.809 424.544 38.4625C421.355 41.0162 420.857 39.1839 420.857 39.1839C420.857 39.1839 413.382 45.1661 413.382 49.3159Z" fill="#575A89"/>
<path d="M441.765 97.8365C441.765 97.8365 432.517 112.201 438.257 114.755C443.997 117.309 447.186 99.7518 447.186 99.7518L441.765 97.8365Z" fill="#A0616A"/>
<path d="M424.371 16.5184C423.857 16.4535 423.694 15.8043 423.608 15.2929C423.144 12.5546 421.106 9.95796 418.366 9.51591C417.319 9.37649 416.255 9.46238 415.244 9.76783C413.795 10.1657 412.435 10.8357 411.237 11.742C410.65 12.2786 409.972 12.7049 409.234 13.0006C408.732 13.1483 406.598 14.098 406.099 14.2587C405.003 14.6119 404.096 15.7605 402.966 15.5331C401.886 15.3155 401.476 14.0099 401.302 12.9208C400.907 10.4396 402.326 6.73745 403.736 4.65915C404.807 3.08202 406.618 2.17436 408.43 1.58386C410.552 0.93915 412.732 0.505516 414.939 0.289254C417.918 -0.0629393 421.004 -0.249797 423.859 0.67199C426.714 1.59378 429.314 3.84867 429.847 6.80376C429.958 7.41932 429.978 8.04983 430.115 8.66034C430.446 10.1497 431.431 11.4016 432.005 12.8151C432.42 13.8532 432.612 14.9668 432.57 16.0839C432.528 17.201 432.252 18.2969 431.761 19.3009C430.966 20.9016 429.583 22.4399 429.882 24.2025L427.421 22.2601C427.065 22.0578 426.79 21.7396 426.64 21.3585C426.491 20.9774 426.476 20.5565 426.599 20.1661L426.957 17.0817C427.081 16.5228 427.025 15.9391 426.797 15.414C425.704 13.5015 425.228 16.6267 424.371 16.5184Z" fill="#2F2E41"/>
<path opacity="0.1" d="M447.505 75.8107L444.501 88.3143C447.531 88.4229 451.539 88.4804 455.787 88.3974C456.859 85.1797 457.883 81.8247 458.667 78.6836C461.537 67.1919 456.754 49.6351 454.202 41.3355C451.651 33.0359 445.273 30.8014 445.273 30.8014C442.658 31.7218 440.188 33.0117 437.938 34.6319C433.792 37.5049 447.505 75.8107 447.505 75.8107Z" fill="black"/>
<path opacity="0.1" d="M444.954 75.1723L441.826 88.1898C442.591 88.2345 443.49 88.276 444.501 88.3143C446.861 88.3973 449.814 88.4516 453.013 88.4293C454.164 85.0105 455.277 81.4033 456.116 78.0452C458.986 66.5534 454.202 48.9966 451.651 40.697C449.1 32.3974 443.519 41.495 443.519 41.495C443.519 41.495 445.751 36.0684 441.606 38.9413C437.46 41.8142 444.954 75.1723 444.954 75.1723Z" fill="black"/>
<path d="M443.997 30.163C443.997 30.163 450.375 32.3975 452.927 40.6971C455.478 48.9967 460.262 66.5535 457.391 78.0452C454.521 89.537 448.462 103.902 448.462 103.902C448.462 103.902 442.403 99.4326 440.17 100.39L446.23 75.1723C446.23 75.1723 432.517 36.8665 436.662 33.9935C438.913 32.3733 441.383 31.0834 443.997 30.163V30.163Z" fill="#575A89"/>
<path d="M448.751 190.278L360.52 6.23987L212.99 77.1047L267.248 190.278H448.751Z" fill="#F2F2F2"/>
<path d="M330.662 78.4792L252.304 116.118L254.638 120.986L332.996 83.3475L330.662 78.4792Z" fill="#3F3D56"/>
<path d="M351.409 121.753L273.05 159.392L275.384 164.26L353.742 126.621L351.409 121.753Z" fill="#3F3D56"/>
<path d="M365.66 53.0172L346.205 62.362L355.541 81.8352L374.995 72.4904L365.66 53.0172Z" fill="#3F3D56"/>
<path d="M386.406 96.2911L366.951 105.636L376.287 125.109L395.742 115.764L386.406 96.2911Z" fill="#3F3D56"/>
<path d="M367 39.5288L358.988 62.3468L348.187 58.5468L346.709 62.756L361.701 68.0297L371.205 41.0082L367 39.5288Z" fill="#57B894"/>
<path d="M387.746 82.8025L379.734 105.62L368.934 101.821L367.456 106.03L382.447 111.303L391.951 84.2819L387.746 82.8025Z" fill="#57B894"/>
<path d="M8.51488 402.096L48.3772 393.572L39.8623 353.672L-3.38846e-05 362.195L8.51488 402.096Z" fill="#F2F2F2"/>
<path d="M47.2686 343.011C47.2686 343.011 32.6271 353.479 37.5076 357.666C42.3881 361.854 52.1491 345.104 52.1491 345.104L47.2686 343.011Z" fill="#FFB9B9"/>
<path d="M114.898 359.062C114.898 359.062 112.11 393.956 111.412 398.842C110.715 403.727 110.018 447.694 108.624 452.579C107.229 457.464 105.835 469.328 105.835 469.328H97.4681C97.4681 469.328 98.1653 447.694 96.0737 439.319C93.982 430.944 94.6793 407.914 94.6793 407.914C94.6793 407.914 90.496 366.739 92.5876 361.156C94.6793 355.573 114.898 359.062 114.898 359.062Z" fill="#FFB9B9"/>
<path d="M103.743 467.235C103.743 467.235 107.229 469.328 107.229 470.724C107.229 472.12 106.532 475.609 107.229 477.005C107.926 478.401 112.807 483.984 110.018 485.38C107.229 486.775 94.6792 485.38 94.6792 485.38C94.6792 485.38 95.3764 475.609 96.0736 474.911C96.7708 474.213 95.3764 467.235 95.3764 467.235H103.743Z" fill="#2F2E41"/>
<path d="M61.6005 358.207C61.6005 358.207 60.7147 393.201 60.8958 398.133C61.0769 403.064 57.1597 446.862 58.0341 451.866C58.9085 456.871 59.0511 468.816 59.0511 468.816L67.3715 469.695C67.3715 469.695 68.9468 448.107 71.9051 439.998C74.8634 431.89 76.5851 408.914 76.5851 408.914C76.5851 408.914 85.0632 368.405 83.5686 362.633C82.0739 356.861 61.6005 358.207 61.6005 358.207Z" fill="#FFB9B9"/>
<path d="M61.3508 466.954C61.3508 466.954 57.6644 468.67 57.5181 470.058C57.3717 471.446 57.6991 474.989 56.8594 476.304C56.0197 477.619 50.5807 482.658 53.2077 484.339C55.8348 486.02 68.4618 485.951 68.4618 485.951C68.4618 485.951 68.7929 476.161 68.1728 475.394C67.5526 474.627 69.6712 467.833 69.6712 467.833L61.3508 466.954Z" fill="#2F2E41"/>
<path d="M105.137 306.721C105.137 306.721 110.715 307.419 112.807 319.283C114.898 331.147 122.568 361.156 116.293 363.249C110.018 365.343 91.1932 369.53 90.4959 368.135C89.7987 366.739 88.4043 363.249 88.4043 363.249C88.4043 363.249 90.4959 369.53 87.7071 369.53C84.9183 369.53 57.7269 365.343 58.4241 363.249C59.1213 361.156 60.5157 345.802 60.5157 345.802C60.5157 345.802 64.699 319.98 68.8823 315.793C70.0929 314.63 71.0329 313.214 71.6354 311.646C72.2379 310.078 72.4881 308.396 72.3683 306.721H105.137Z" fill="#2F2E41"/>
<path d="M115.596 301.138C115.596 301.138 106.532 299.044 105.138 301.835C103.743 304.627 108.624 308.814 110.715 308.814C112.807 308.814 116.293 306.721 116.293 306.721L115.596 301.138Z" fill="#FFB9B9"/>
<path d="M96.7709 241.817C103.702 241.817 109.321 236.193 109.321 229.255C109.321 222.317 103.702 216.693 96.7709 216.693C89.8398 216.693 84.2211 222.317 84.2211 229.255C84.2211 236.193 89.8398 241.817 96.7709 241.817Z" fill="#FFB9B9"/>
<path d="M94.6793 238.328C94.6793 238.328 92.5876 248.098 93.982 248.098C95.3764 248.098 83.5238 254.379 83.5238 254.379L74.46 252.983L71.6711 248.796C71.6711 248.796 86.3127 239.026 86.3127 233.443C86.3127 227.859 94.6793 238.328 94.6793 238.328Z" fill="#FFB9B9"/>
<path d="M88.4043 248.098C88.4043 248.098 90.4959 246.702 91.1932 246.702H96.7709C97.4681 246.702 106.532 248.796 106.532 248.796L112.11 280.201C112.11 280.201 102.349 296.252 109.321 308.814C109.321 308.814 107.229 307.419 97.4681 308.116C87.7071 308.814 70.2767 310.908 69.5795 310.908C68.8823 310.908 68.8823 305.325 69.5795 303.929C70.2767 302.533 68.8823 303.231 68.8823 299.742C68.8823 296.252 66.7907 289.971 66.7907 289.971L57.0297 254.379C57.0297 254.379 69.5795 247.4 71.6712 248.098C73.7628 248.796 80.0378 250.89 81.4322 250.192C82.8266 249.494 88.4043 248.098 88.4043 248.098Z" fill="#EA316F"/>
<path d="M104.44 249.494L106.532 248.796C106.532 248.796 110.715 248.098 115.596 252.286C120.476 256.473 138.604 269.035 138.604 269.035C138.604 269.035 145.576 274.618 143.484 280.899C141.393 287.18 137.907 302.533 127.448 301.835C127.448 301.835 121.173 310.21 117.687 308.814C114.201 307.419 111.412 301.835 113.504 301.138C115.596 300.44 121.173 293.461 121.173 293.461L114.201 280.201H112.11L104.44 276.014L104.44 249.494Z" fill="#EA316F"/>
<path d="M62.6073 253.681L57.0296 254.379C57.0296 254.379 52.1491 256.473 52.8463 265.545C53.5435 274.618 48.663 315.793 50.7547 320.678C50.7547 320.678 43.7825 344.407 45.1769 345.104C46.5714 345.802 54.938 349.99 54.2407 347.198C53.5435 344.406 61.9101 324.866 61.9101 324.866C61.9101 324.866 71.6711 314.397 67.4878 299.742V287.878L62.6073 253.681Z" fill="#EA316F"/>
<path d="M107.216 241.4L98.3523 243.333L97.2133 238.965L97.6512 243.486L83.3527 246.604L82.7238 244.192L82.9656 246.688L73.8074 248.686L71.8483 229.861C69.8342 222.137 77.185 213.904 84.9021 211.888L88.3256 210.993C93.9936 209.513 104.296 210.859 105.776 216.532C103.186 226.424 98.7727 237.268 107.216 241.4Z" fill="#2F2E41"/>
</svg>
